# xmcd
#
# Track frame offsets: 
#        150
#        12201
#        24214
#        38355
#        49440
#        57213
#        68515
#        81364
#        94735
#        108890
#        121254
#        134235
#        144810
#        158356
#        171587
#        184082
#        197050
#        207740
#        220447
#        229253
#
# Disc length: 3232 seconds
#
# Revision: 1
# Processed by: cddbd v1.5.2PL0 Copyright (c) Steve Scherf et al.
# Submitted via: ExactAudioCopy v1.0b3
#
DISCID=170c9e14
DTITLE=Travis, Merle - The Definitive Collection [Disc 2]
DYEAR=1900
DGENRE=Country
TTITLE0=Nine Pound Hammer
TTITLE1=No Vacancy
TTITLE2=Over By Number Nine
TTITLE3=Philosophy
TTITLE4=Travis, Merle and Tennessee Ernie Ford - Pigmeat Strut
TTITLE5=Sioux City Sue
TTITLE6=Sixteen Tons
TTITLE7=So Round, So Firm, So Fully Packed
TTITLE8=Start Even
TTITLE9=Steel Guitar Rag
TTITLE10=Sweet Temptation
TTITLE11=T For Texas
TTITLE12=That's All
TTITLE13=Three Times Seven
TTITLE14=What A Shame
TTITLE15=When My Baby Double Talks To Me
TTITLE16=Done Rovin'
TTITLE17=If We Never Meet Again
TTITLE18=Over In Gloryland
TTITLE19=Will The Circle Be Unbroken?
EXTD=
EXTT0=
EXTT1=
EXTT2=
EXTT3=
EXTT4=
EXTT5=
EXTT6=
EXTT7=
EXTT8=
EXTT9=
EXTT10=
EXTT11=
EXTT12=
EXTT13=
EXTT14=
EXTT15=
EXTT16=
EXTT17=
EXTT18=
EXTT19=
PLAYORDER=
